#!OML:ASF H:\ManfredETheater\Project 1\Capture day 1\Session 1\subject.ASF
:FULLY-SPECIFIED
:DEGREES
78
root 4.40196 16.7501 -6.71363 6.82511 17.1855 -2.45148
lowerback 13.5604 1.36024 1.0053
upperback 1.75187 2.02612 1.06402
thorax -5.75703 0.986342 0.181958
lowerneck -15.4019 -6.81358 -7.76703
upperneck 12.9142 -8.50679 6.12375
head 7.07567 -3.95364 2.31259
rclavicle -3.72721e-014 -5.96354e-015
rhumerus -50.4863 8.65376 -75.6311
rradius 87.8831
rwrist -7.69427
rhand -29.151 6.67866
rfingers 7.12502
rthumb -2.49755 -23.2865
lclavicle -3.72721e-014 -5.96354e-015
lhumerus -53.6381 -12.2488 91.1668
lradius 117.34
lwrist 6.89876
lhand -17.8464 -13.1904
lfingers 7.12502
lthumb 8.41855 16.6218
rfemur 3.37773 4.98616 16.2513
rtibia 54.259
rfoot 6.61623 -10.5529
rtoes -39.8395
lfemur -46.8247 -8.17957 6.92146
ltibia 40.7541
lfoot 5.083 -1.35345
ltoes -18.8995
79
root 4.55832 16.68 -6.2438 6.62048 17.1725 -2.19916
lowerback 13.3077 1.31178 0.452985
upperback 1.85732 1.84616 0.560292
thorax -5.50623 0.906596 0.0041782
lowerneck -15.302 -6.84521 -7.99758
upperneck 13.0044 -8.64133 6.87972
head 7.14455 -3.96594 2.58023
rclavicle 4.55776e-014 -2.36181e-014
rhumerus -51.3913 8.6376 -76.7001
rradius 87.057
rwrist -7.85005
rhand -28.8626 6.46455
rfingers 7.12502
rthumb -2.219 -23.5037
lclavicle 4.55776e-014 -2.36181e-014
lhumerus -52.7063 -12.6271 89.3728
lradius 117.681
lwrist 6.80729
lhand -17.9403 -13.1267
lfingers 7.12502
lthumb 8.32795 16.6892
rfemur 2.895 4.20077 16.9989
rtibia 57.5435
rfoot 6.16516 -9.12698
rtoes -40.109
lfemur -45.9119 -8.58117 7.31967
ltibia 40.2287
lfoot 4.99033 -1.66777
ltoes -21.2045
80
root 4.71819 16.5982 -5.77918 6.38826 17.1713 -1.88114
lowerback 13.1556 1.2272 -0.0893478
upperback 1.97102 1.62628 0.0501282
thorax -5.30227 0.805968 -0.181326
lowerneck -15.2467 -6.84678 -8.19222
upperneck 13.0815 -8.72539 7.54727
head 7.20837 -3.95914 2.81945
rclavicle -2.72335e-014 -3.97569e-015
rhumerus -52.2974 8.63178 -77.7441
rradius 86.2762
rwrist -8.10754
rhand -28.5347 6.2712
rfingers 7.12502
rthumb -1.90236 -23.7001
lclavicle -2.72335e-014 -3.97569e-015
lhumerus -51.6564 -12.9454 87.5483
lradius 117.984
lwrist 6.84964
lhand -18.0544 -13.0304
lfingers 7.12502
lthumb 8.21782 16.7898
rfemur 2.33405 3.20898 17.6213
rtibia 60.9393
rfoot 5.73637 -8.05013
rtoes -40.0932
lfemur -45.0105 -8.78853 7.39324
ltibia 40.2725
lfoot 4.12638 -2.08247
ltoes -23.3923
81
root 4.88076 16.5067 -5.32086 6.14061 17.1819 -1.47231
lowerback 13.1239 1.11379 -0.661521
upperback 2.08546 1.36807 -0.459234
thorax -5.16491 0.686263 -0.34553
lowerneck -15.2254 -6.81588 -8.34229
upperneck 13.1326 -8.75309 8.10578
head 7.25819 -3.93204 3.02306
rclavicle -2.18663e-015 -1.74931e-014
rhumerus -53.2133 8.63058 -78.7368
rradius 85.5503
rwrist -8.44062
rhand -28.1703 6.09338
rfingers 7.12502
rthumb -1.55037 -23.8807
lclavicle -2.18663e-015 -1.74931e-014
lhumerus -50.4983 -13.1814 85.7317
lradius 118.235
lwrist 7.05597
lhand -18.165 -12.8952
lfingers 7.12502
lthumb 8.11113 16.9291
rfemur 1.69034 2.04242 18.0914
rtibia 64.4118
rfoot 5.24516 -7.29628
rtoes -39.9125
lfemur -44.1054 -8.80573 7.14112
ltibia 40.8548
lfoot 2.50922 -2.66378
ltoes -25.4427
82
root 5.04446 16.4078 -4.87011 5.89022 17.2074 -0.954322
lowerback 13.2316 0.979194 -1.30057
upperback 2.19549 1.07316 -0.959999
thorax -5.11011 0.549301 -0.459772
lowerneck -15.2241 -6.75718 -8.45312
upperneck 13.1383 -8.72945 8.56115
head 7.28556 -3.88737 3.1933
rclavicle -2.54444e-014 2.62396e-014
rhumerus -54.1392 8.61145 -79.6527
rradius 84.8786
rwrist -8.81714
rhand -27.7578 5.95099
rfingers 7.12502
rthumb -1.15199 -24.0256
lclavicle -2.54444e-014 2.62396e-014
lhumerus -49.2238 -13.3142 83.9601
lradius 118.409
lwrist 7.4384
lhand -18.2358 -12.7278
lfingers 7.12502
lthumb 8.04277 17.0992
rfemur 0.949834 0.728502 18.3946
rtibia 67.9364
rfoot 4.63271 -6.81382
rtoes -39.6923
lfemur -43.1931 -8.66206 6.59175
ltibia 41.9115
lfoot 0.235376 -3.44135
ltoes -27.3148
83
root 5.20728 16.303 -4.42818 5.65689 17.2535 -0.314668
lowerback 13.4819 0.832926 -2.04194
upperback 2.29812 0.744994 -1.44234
thorax -5.14157 0.397999 -0.493503
lowerneck -15.2252 -6.66664 -8.50663
upperneck 13.0645 -8.64832 8.89761
head 7.27363 -3.82359 3.32291
rclavicle 6.36111e-015 1.55052e-014
rhumerus -55.0663 8.54778 -80.4649
rradius 84.2535
rwrist -9.192
rhand -27.3339 5.86056
rfingers 7.12502
rthumb -0.742589 -24.1179
lclavicle 6.36111e-015 1.55052e-014
lhumerus -47.8282 -13.3332 82.275
lradius 118.483
lwrist 7.96903
lhand -18.2658 -12.547
lfingers 7.12502
lthumb 8.01382 17.2811
rfemur 0.0869898 -0.715058 18.5237
rtibia 71.4908
rfoot 3.84881 -6.54389
rtoes -39.5377
lfemur -42.2821 -8.39502 5.78782
ltibia 43.3467
lfoot -2.55929 -4.41457
ltoes -28.9026
84
root 5.36687 16.1941 -3.99601 5.46815 17.3268 0.470905
lowerback 13.87 0.685717 -2.93085
upperback 2.39251 0.385962 -1.90264
thorax -5.25504 0.235168 -0.416421
lowerneck -15.2267 -6.55664 -8.51622
upperneck 12.8972 -8.52534 9.13311
head 7.22033 -3.74756 3.4175
rclavicle -1.21259e-014 1.98785e-014
rhumerus -55.98 8.40602 -81.1515
rradius 83.6623
rwrist -9.53728
rhand -26.9016 5.82072
rfingers 7.12502
rthumb -0.325096 -24.1588
lclavicle -1.21259e-014 1.98785e-014
lhumerus -46.2915 -13.232 80.7119
lradius 118.417
lwrist 8.57696
lhand -18.251 -12.3727
lfingers 7.12502
lthumb 8.02813 17.4548
rfemur -0.93966 -2.28101 18.4612
rtibia 75.0573
rfoot 2.87066 -6.427
rtoes -39.4634
lfemur -41.3746 -8.04284 4.75183
ltibia 45.0401
lfoot -5.68788 -5.53922
ltoes -30.2197
